<?xml version="1.0" encoding="UTF-8" standalone="no"?>
<!-- Generator: Adobe Illustrator 29.0.1, SVG Export Plug-In . SVG Version: 9.03 Build 54978)  -->

<svg
   version="1.1"
   id="Layer_1"
   x="0px"
   y="0px"
   viewBox="0 0 1719 445"
   enable-background="new 0 0 1719 445"
   xml:space="preserve"
   sodipodi:docname="logo-utmessan.svg"
   inkscape:version="1.2.2 (732a01da63, 2022-12-09)"
   xmlns:inkscape="http://www.inkscape.org/namespaces/inkscape"
   xmlns:sodipodi="http://sodipodi.sourceforge.net/DTD/sodipodi-0.dtd"
   xmlns="http://www.w3.org/2000/svg"
   xmlns:svg="http://www.w3.org/2000/svg"><defs
   id="defs32" /><sodipodi:namedview
   id="namedview30"
   pagecolor="#ffffff"
   bordercolor="#000000"
   borderopacity="0.25"
   inkscape:showpageshadow="2"
   inkscape:pageopacity="0.0"
   inkscape:pagecheckerboard="0"
   inkscape:deskcolor="#d1d1d1"
   showgrid="false"
   inkscape:zoom="0.53033708"
   inkscape:cx="781.57839"
   inkscape:cy="222.5"
   inkscape:window-width="2560"
   inkscape:window-height="1494"
   inkscape:window-x="-11"
   inkscape:window-y="-11"
   inkscape:window-maximized="1"
   inkscape:current-layer="Layer_1" />
<g
   id="g27"
   style="fill:#000000">
	<path
   id="path15939_00000071561976929079135050000012147347257818035869_"
   fill="#FFFFFF"
   d="M545.7,233.2v-74.3   c0-1.1,0.5-1.9,1.6-1.9h22.7c1.1,0,1.9,0.8,1.9,1.9v74.9c0,14.3,7.8,22.4,20.3,22.4c12.2,0,20.3-8.1,20.3-22.4v-74.9   c0-1.1,0.5-1.9,1.6-1.9h22.7c1.1,0,1.9,0.8,1.9,1.9v74.3c0,29.7-19.5,46.2-46.5,46.2C564.9,279.4,545.7,262.9,545.7,233.2z"
   style="fill:#000000" />
	<path
   id="path15941_00000004515594033111397210000011855101768401782434_"
   fill="#FFFFFF"
   d="M684.4,277.2c-1.1,0-1.6-0.5-1.6-1.6   v-94.4c0-0.7-0.4-1.1-1.1-1.1h-30.8c-1.1,0-1.6-0.8-1.6-1.9v-19.5c0-1.1,0.5-1.9,1.6-1.9h90c0.8,0,1.6,0.8,1.6,1.9v19.5   c0,1.1-0.8,1.9-1.6,1.9h-30.8c-0.7,0-1.1,0.4-1.1,1.1v94.4c0,1.1-0.8,1.6-1.9,1.6H684.4z"
   style="fill:#000000" />
	<path
   id="path15943_00000064336761620298672360000012226785911068588674_"
   fill="#FFFFFF"
   d="M949.1,277c-1.6,0-2.7-1.1-2.7-2.4   v-70.3c0-13.2-6.5-22.2-19.2-22.2c-12.2,0-19.2,8.9-19.2,22.2v70.3c0,1.4-1.1,2.4-2.4,2.4H875c-1.6,0-2.4-1.1-2.4-2.4v-70.3   c0-13.2-6.5-22.2-19.2-22.2c-12.2,0-19.2,8.9-19.2,22.2v70.3c0,1.4-1.1,2.4-2.7,2.4h-30.6c-1.4,0-2.4-1.1-2.4-2.4V157.5   c0-1.6,1.1-2.4,2.4-2.4h30.6c1.6,0,2.7,0.8,2.7,2.4v8.7h0.3c5.4-7.6,16-14.1,31.6-14.1c15.1,0,26,5.4,33,15.4h0.3   c9.2-9.5,21.4-15.4,38.7-15.4c28.9,0,44.1,18.4,44.1,45.4v77.1c0,1.4-1.1,2.4-2.7,2.4H949.1z"
   style="fill:#000000" />
	
		<path
   id="path15945_00000102528963488906785910000002518884204877891207_"
   fill-rule="evenodd"
   clip-rule="evenodd"
   fill="#FFFFFF"
   d="   M1006.1,244.8c-2.4-7.6-4.3-16.2-4.3-28.9s1.6-21.6,4.1-29.2c7.3-21.9,26.8-34.6,53-34.6c27,0,46,13,53,34.3   c2.7,8.1,4.1,17,4.1,37.6c0,1.6-0.8,2.4-2.7,2.4h-74.6c-0.9,0-1.4,0.5-1.4,1.6c0.2,2.5,0.6,4.8,1.4,6.8   c3.5,10.5,12.7,16.2,25.4,16.2c12.4,0,21.4-4.3,28.4-10.8c1.4-1.1,2.4-1.4,3.5,0l16.8,15.7c1.4,0.8,1.4,2.4,0.3,3.5   c-11.6,12.2-29.7,20.3-52.4,20.3C1032.6,279.7,1013.2,266.9,1006.1,244.8L1006.1,244.8z M1079.4,203.1c1.1,0,1.6-0.5,1.6-1.6   c0-3.8-0.5-6.5-1.4-9.2c-2.7-8.1-10.5-13.2-20.5-13.2c-10.3,0-17.8,5.1-20.5,13.2c-0.8,2.7-1.4,5.4-1.4,9.2c0,1.1,0.5,1.6,1.4,1.6   H1079.4z"
   style="fill:#000000" />
	<path
   id="path15947_00000090999877559618773710000001557456920393632137_"
   fill="#FFFFFF"
   d="M1129.2,260.7c-1.1-1.1-1.1-2.4,0-3.5   l16.5-18.4c1.1-1.1,2.4-1.1,3.5,0c11.1,8.4,25.1,13.2,37.9,13.2c13,0,18.9-4.6,18.9-11.4c0-5.9-3.2-9.5-17.6-10.8l-13.5-1.4   c-26-2.4-40.3-15.4-40.3-37.3c0-24.1,18.7-39.2,50.6-39.2c20.8,0,38.4,6.8,49.7,15.1c1.1,1.1,1.4,2.7,0.3,3.8l-14.1,17.6   c-1.1,1.1-2.4,1.1-3.8,0.3c-8.4-5.1-20.5-9.7-33.3-9.7c-10.3,0-15.4,4.1-15.4,10c0,5.7,3,8.9,17,10.3l13.5,1.4   c28.9,3,40.8,16.8,40.8,37c-0.3,25.1-19.7,41.9-54.9,41.9C1159.4,279.7,1140.8,270.7,1129.2,260.7L1129.2,260.7z"
   style="fill:#000000" />
	<path
   id="path15949_00000003792199933648702570000001419170957575230594_"
   fill="#FFFFFF"
   d="M1252.4,260.7c-1.1-1.1-1.1-2.4,0-3.5   l16.5-18.4c1.1-1.1,2.4-1.1,3.8,0c10.8,8.4,24.9,13.2,37.6,13.2c13,0,18.9-4.6,18.9-11.4c0-5.9-3.2-9.5-17.6-10.8l-13.5-1.4   c-26-2.4-40.3-15.4-40.3-37.3c0-24.1,18.7-39.2,50.6-39.2c20.8,0,38.4,6.8,49.7,15.1c1.1,1.1,1.4,2.7,0.3,3.8l-14.1,17.6   c-1.1,1.1-2.4,1.1-3.5,0.3c-8.7-5.1-20.8-9.7-33.5-9.7c-10.3,0-15.4,4.1-15.4,10c0,5.7,3,8.9,17,10.3l13.5,1.4   c28.9,3,40.8,16.8,40.8,37c-0.3,25.1-19.7,41.9-54.9,41.9C1282.7,279.7,1264.1,270.7,1252.4,260.7L1252.4,260.7z"
   style="fill:#000000" />
	
		<path
   id="path15951_00000044153992651931435960000012920971515522728612_"
   fill-rule="evenodd"
   clip-rule="evenodd"
   fill="#FFFFFF"
   d="   M1455.8,277c-1.6,0-2.7-1.1-2.7-2.4v-8.1h-0.3c-6.2,8.1-17,13.2-33.8,13.2c-21.9,0-40.8-11.4-40.8-37.3c0-27,20.5-39.2,51.1-39.2   h21.9c0.9,0,1.4-0.5,1.4-1.6v-4.6c0-11.4-5.4-16.5-25.1-16.5c-12.4,0-21.6,3.5-27.3,7.8c-1.4,0.8-2.7,0.5-3.5-0.5l-11.4-20   c-0.8-1.4-0.5-2.7,0.8-3.5c10.3-7.3,25.4-12.2,45.7-12.2c40.3,0,54.6,13.8,54.6,44.1v78.4c0,1.4-0.8,2.4-2.4,2.4L1455.8,277z    M1452.8,236.4V228c0-1.1-0.5-1.6-1.6-1.6h-17.3c-15.1,0-21.9,4.3-21.9,14.1c0,8.4,6.2,12.7,17.8,12.7   C1444.9,253.2,1452.8,247.8,1452.8,236.4z"
   style="fill:#000000" />
	<path
   id="path15953_00000097494836478315937650000004421380656697318540_"
   fill="#FFFFFF"
   d="M1589,277c-1.6,0-2.4-1.1-2.4-2.4   v-70.3c0-13.2-6.5-22.2-19.2-22.2c-12.2,0-19.2,8.9-19.2,22.2v70.3c0,1.4-1.1,2.4-2.7,2.4h-30.3c-1.6,0-2.7-1.1-2.7-2.4V157.5   c0-1.6,1.1-2.4,2.7-2.4h30.3c1.6,0,2.7,0.8,2.7,2.4v8.7h0.3c5.4-7.6,16-14.1,31.6-14.1c27.3,0,41.9,18.7,41.9,45.4v77.1   c0,1.4-0.8,2.4-2.4,2.4H1589z"
   style="fill:#000000" />
	<path
   id="path15955_00000124145712724615892590000006027686073781337507_"
   fill="#FFCD2C"
   d="M1647.2,244.2c0-1.6,1.1-2.7,2.7-2.7   h30.3c1.4,0,2.4,1.1,2.4,2.7v30.3c0,1.4-1.1,2.4-2.4,2.4h-30.3c-1.6,0-2.7-1.1-2.7-2.4V244.2z"
   style="fill:#000000" />
	<path
   id="path15961_00000036961983626027553370000008890821555402080646_"
   fill="#FFCD2C"
   d="M774.7,323.7h-18.7V121.2h18.7V323.7z   "
   style="fill:#000000" />
	<linearGradient
   id="SVGID_1_"
   gradientUnits="userSpaceOnUse"
   x1="36.4062"
   y1="222.4758"
   x2="456.8445"
   y2="222.4758">
		<stop
   offset="0"
   style="stop-color:#FFDA2C"
   id="stop12" />
		<stop
   offset="9.256009e-02"
   style="stop-color:#FFD129"
   id="stop14" />
		<stop
   offset="0.4726"
   style="stop-color:#FFAD20"
   id="stop16" />
		<stop
   offset="0.6076"
   style="stop-color:#FF9C20"
   id="stop18" />
		<stop
   offset="0.8745"
   style="stop-color:#FF6F21"
   id="stop20" />
		<stop
   offset="0.9999"
   style="stop-color:#FF5822"
   id="stop22" />
	</linearGradient>
	<path
   fill="url(#SVGID_1_)"
   d="M385.8,20.1l-69.5,40.1l-0.1,0l-69.6,40.2l0,0l-68.1,39.3V60.8l-71.1-41l-71.1,41v242.9l210.2,121.4   l139.9-80.8l0.7-0.4V183.3l69.6-40.2V61.1L385.8,20.1z M382.7,102.1l-65.1,37.6V64.5L382.7,102.1z M319.2,61.9l66.5-38.4l66.6,38.5   l-66.5,38.4L319.2,61.9z M248.1,340.5v-75.2l65.1,37.6L248.1,340.5z M314.7,305.5v75.2l-65.1-37.6L314.7,305.5z M248.1,179.8v-75.2   l65.1,37.6L248.1,179.8z M314.7,225.2v75.2l-65.1-37.6L314.7,225.2z M249.6,102l65.1-37.6v75.2L249.6,102z M248.1,420.9v-75.2   l65.1,37.6L248.1,420.9z M180,142.2l65.1-37.6v75.2L180,142.2z M40.9,61.7l66.6-38.5l66.6,38.5l-66.6,38.5L40.9,61.7z M175.6,144.7   V220l-65.2-37.7L175.6,144.7z M174,222.5L109,260V185L174,222.5z M109,179.6v-75.1l65.1,37.6L109,179.6z M175.6,225.2v75.2   l-65.1-37.6L175.6,225.2z M110.4,101.9l65.2-37.6v75.3L110.4,101.9z"
   id="path25"
   style="fill:#000000" />
</g>
</svg>
