<svg enable-background="new 0 0 510.24 141.73" viewBox="0 0 510.24 141.73" xmlns="http://www.w3.org/2000/svg"><path d="m209.8 52.16c.06.68-.17.98-.71.88-.51-.12-1.08.02-1.71.41s-1.27 1.14-1.93 2.24c-.63 1.08-1.13 1.94-1.49 2.59s-1.1 1.48-2.22 2.48c-1.1 1-1.76 2-1.97 3-.22 1-.61 2.27-1.19 3.81s-1.05 2.6-1.41 3.18c-.38.63-1.36 1.88-2.95 3.75-1.56 1.87-2.87 3.75-3.93 5.63-.55.99-1.05 2.4-1.51 4.25-.44 1.82-1.05 3.15-1.85 3.99s-1.59 1.61-2.39 2.31c-.78.71-1.3 1.33-1.57 1.86-.61 1.19-1.93 2.67-3.96 4.44-2.03 1.78-3.77 3.52-5.23 5.24-.56.65-1.31 1.55-2.25 2.67-.94 1.13-1.79 2.01-2.55 2.65-.32.27-.83.22-1.53-.16-.69-.38-1.08-.87-1.16-1.46-.11-.86-.24-1.62-.39-2.27-.15-.66-.36-1.34-.62-2.04-.62-1.75-1.28-3.41-1.98-4.98-.7-1.59-1.11-2.75-1.22-3.48s-.23-1.47-.36-2.24c-.13-.79-.24-2.71-.32-5.75-.01-.53.02-2.32.09-5.37.07-3.07.1-5.15.07-6.23s-.14-2.85-.34-5.32c-.2-2.49.03-4.17.7-5.05.66-.88 1.52-2.38 2.56-4.5 1.05-2.15 1.67-3.7 1.86-4.65.2-.95.2-1.74 0-2.35-.19-.63.07-.96.8-.98 1.04-.03 1.73.18 2.07.61.34.41.67 1.22.99 2.42.2.75.39 2.73.59 5.94.19 3.22.3 5.15.32 5.79.02.62-.22 2.25-.7 4.89-.46 2.64-.5 5.36-.12 8.15.11.81.26 1.94.45 3.37.21 1.41.35 2.35.41 2.84.12 1.08.35 1.62.71 1.64.37.01.76-.19 1.14-.59 1.14-1.2 1.95-2.1 2.45-2.71.49-.61.99-1.23 1.51-1.86.53-.65 1.54-1.72 3.03-3.19 1.48-1.47 2.49-2.5 3.03-3.09 2.51-2.8 4.14-5.35 4.9-7.64.76-2.31 1.51-3.91 2.26-4.79.39-.45 1.05-1.31 1.99-2.57.94-1.28 1.69-2.25 2.27-2.91.56-.63 1.58-1.57 3.07-2.83 1.49-1.27 2.52-2.11 3.08-2.5s1.24-.82 2.02-1.28c.8-.46 2.1-.72 3.89-.76 1.1-.03 1.9.23 2.4.76.54.48.83 1.08.9 1.76"/><path d="m209.04 69.45c.01.33-.31.69-.96 1.1-.65.4-1.26.69-1.84.86-.8.24-1.26.52-1.39.85-.12.32-.41.63-.86.92-.58.37-1.05.62-1.42.75-.35.11-.89.37-1.61.79-.87.51-1.43.81-1.67.9-.24.08-.53.12-.85.13-.47.01-.75-.01-.84-.06s-.12-.28-.1-.66c.01-.27.1-.62.29-1.06.2-.45.42-.82.66-1.11.48-.6.89-.95 1.22-1.04.33-.11.67-.37 1.03-.78.74-.82 1.09-1.27 1.06-1.34s.24-.33.82-.79c.56-.44 1.25-.63 2.07-.57.83.06 1.66.09 2.49.06.53-.01.97.07 1.34.24.35.17.55.43.56.81m-5.35 13.8c-.02.39-.18 1.17-.47 2.35-.3 1.18-.5 2.42-.61 3.71-.06.82-.08 1.87-.05 3.15.03 1.29.07 2.21.11 2.76.14 2.17.24 3.59.28 4.26.05.67.04 1.64-.01 2.9-.03.93-.37 1.6-1.02 2.02s-1.32.63-2.02.65c-.92.02-1.55-.12-1.9-.42-.34-.29-.54-.74-.61-1.36-.02-.19-.14-.78-.37-1.77-.23-1.01-.36-2.17-.39-3.49-.02-.7 0-1.54.06-2.51.07-.99.12-1.81.13-2.45.01-.8.01-1.59 0-2.36s-.01-1.22-.01-1.33c-.01-.44.19-1.25.6-2.42.43-1.17.79-1.94 1.08-2.3.28-.35.79-.86 1.53-1.52.76-.66 1.38-1 1.88-1.02.49-.01.91.08 1.27.27.37.21.54.49.52.88"/><path d="m230.29 80.21c.01.54.01 1.14-.03 1.82-.03.67-.64 1.39-1.83 2.16-.29.19-.81.36-1.56.53-.73.15-1.37.34-1.92.56-.78.31-1.56.55-2.36.7-.8.14-1.72.41-2.77.83-.57.23-.94.45-1.11.67-.16.22-.23.53-.22.94.01.49.4 1.08 1.17 1.76.79.68 1.55 1.3 2.3 1.85 2.25 1.69 3.57 2.89 3.97 3.6.39.71.66 1.53.8 2.46.16 1.04.08 2.06-.24 3.05-.3.99-.81 1.95-1.52 2.88-.47.63-1.16 1.25-2.06 1.84-.88.6-2.11 1.05-3.67 1.37-1.33.28-2.95.42-4.84.42-1.9-.02-3.17-.11-3.81-.29-.43-.12-.84-.17-1.23-.16-.38-.01-.57-.25-.58-.74-.01-.41.13-.66.42-.75.31-.11.66-.22 1.05-.35 1.43-.45 2.55-1.09 3.38-1.93.84-.84 1.43-1.43 1.74-1.79.68-.75 1.23-1.46 1.64-2.13.42-.67.63-1.32.61-1.95-.01-.56-.23-.97-.65-1.23-.4-.28-1.01-.78-1.83-1.5-.52-.46-1.49-1.48-2.9-3.06-1.41-1.6-2.14-3.2-2.18-4.8-.03-1.31.3-2.48 1.01-3.51.72-1.03 1.39-1.79 2-2.28 1.12-.91 2.75-1.59 4.87-2.04 2.13-.46 3.63-.71 4.49-.73 1.4-.04 2.64-.04 3.7 0 1.08.02 1.92.1 2.53.25.71.18 1.15.42 1.32.73.2.28.3.56.31.82"/><path d="m246.13 83.54c-.03.54-.25 1.63-.66 3.27s-.7 3.36-.85 5.16c-.09 1.14-.11 2.6-.06 4.39s.1 3.07.16 3.85c.2 3.02.33 5 .39 5.93s.06 2.28-.01 4.03c-.05 1.3-.52 2.23-1.42 2.81s-1.84.88-2.81.91c-1.27.03-2.15-.16-2.64-.59-.47-.41-.75-1.03-.85-1.89-.03-.26-.2-1.08-.51-2.46-.32-1.4-.5-3.02-.54-4.85-.03-.97 0-2.14.09-3.49.1-1.38.16-2.51.18-3.41.01-1.11.01-2.21 0-3.28s-.02-1.69-.02-1.85c-.02-.62.26-1.74.84-3.37.59-1.63 1.09-2.69 1.5-3.2.38-.49 1.09-1.19 2.12-2.12 1.05-.92 1.92-1.39 2.62-1.41.68-.02 1.27.11 1.77.37.49.26.73.66.7 1.2m4.95-14.13c.02.82-.36 1.64-1.13 2.48s-1.56 1.67-2.35 2.51c-.43.45-1.17.97-2.23 1.55-1.04.58-2.17.95-3.4 1.1-1.21.15-2.27-.05-3.18-.6-.91-.57-1.62-1.14-2.13-1.7-.49-.54-1.25-1.36-2.27-2.45-1-1.11-1.52-2.13-1.54-3.06-.03-.99.39-1.76 1.25-2.3.88-.56 1.63-1.09 2.26-1.58.64-.51 1.72-1.06 3.24-1.64 1.52-.6 2.98-.91 4.39-.95 2.29-.06 3.68.37 4.18 1.29.5.9.8 1.46.91 1.68.27.61.67 1.15 1.18 1.61.52.44.79 1.13.82 2.06"/><path d="m286.79 98.74c.04 1.35-.06 2.99-.29 4.9-.23 1.92-.41 3.23-.54 3.94-.3 1.55-.95 2.74-1.93 3.56-.97.82-1.76 1.76-2.37 2.83-.45.76-1.16 1.38-2.11 1.86-.93.5-1.71.75-2.33.77-.6.02-.93-.21-.98-.68-.03-.45.04-1.01.21-1.68.39-1.56.52-3.24.38-5.06-.13-1.82-.18-3.74-.15-5.76s.13-3.88.3-5.58c.19-1.7.28-2.64.28-2.81-.01-.41-.16-1.52-.44-3.34-.26-1.82-.47-3.07-.61-3.75-.59-2.9-1.24-4.58-1.93-5.04-.7-.47-1.49-.7-2.37-.68-.84.02-1.46.64-1.88 1.85-.42 1.19-.67 2.12-.76 2.79-.14 1.06-.22 1.94-.22 2.65 0 .69-.08 1.49-.23 2.42-.09.63-.4 1.46-.93 2.5-.51 1.04-.86 1.82-1.07 2.31-.14.35-.4 1.02-.78 2.02s-.67 1.96-.86 2.89c-.27 1.34-.55 2.78-.85 4.34-.28 1.53-.42 2.59-.4 3.17.02.71-.81 1.44-2.49 2.19-1.68.77-3.15 1.18-4.41 1.21-1.05.03-1.64-.44-1.78-1.4-.11-.96-.18-1.8-.19-2.51-.07-2.59-.06-4.99.04-7.18.11-2.19.12-5.34.01-9.43-.11-4.16-.3-6.99-.58-8.48-.25-1.5-.43-4.28-.54-8.36-.02-.66.36-1.22 1.15-1.67.78-.47 1.34-.71 1.69-.72.41-.01.59.06.55.21-.02.15.05.41.21.77.23.49.75 1.35 1.58 2.6.83 1.24 1.31 1.98 1.44 2.22.18.34.4.57.66.69s.52-.1.79-.66c.75-1.56 1.87-2.99 3.36-4.27 1.51-1.31 3.08-1.98 4.71-2.02 1.05-.03 2.23.3 3.53.97 1.33.67 2.59 1.5 3.8 2.48.96.79 1.96 1.62 2.99 2.5 1.05.87 1.92 1.73 2.61 2.57.73.9 1.33 1.79 1.81 2.66.49.87.79 1.51.89 1.94.29 1.13.51 2.96.66 5.49.18 2.49.3 5.1.37 7.78"/><path d="m316.85 88.37c-.02-.75-.11-1.51-.26-2.29-.15-.77-.49-1.21-1-1.3-1.43-.23-2.44-.38-3.03-.44-.56-.07-1.48-.08-2.74-.05-.94.02-2.16.24-3.68.66s-2.87 1.13-4.04 2.16c-.79.69-1.19 1.73-1.21 3.13.01 1.39.03 2.76.07 4.1.02.75.44 2.13 1.27 4.15.86 1.99 2.05 2.95 3.57 2.88 2.14-.11 3.63-.99 4.48-2.65.87-1.66 1.47-2.68 1.81-3.06 1.22-1.35 2.33-2.5 3.33-3.47.99-.99 1.47-2.26 1.43-3.82m12.18-15.28c-.11.75-.22 3.38-.32 7.89-.07 4.51-.1 7.09-.08 7.76.02.64-.51 1.97-1.58 3.98s-1.79 3.4-2.14 4.16c-.36.73-.73 3.22-1.13 7.47-.4 4.22-.69 7.87-.88 10.96-.09 1.58-.29 2.83-.58 3.76-.3.95-.9 1.58-1.8 1.9-1.09.38-1.83.41-2.21.1-.36-.29-.96-.74-1.8-1.36-.68-.49-2.3-1.19-4.84-2.08-2.54-.9-4.12-1.61-4.72-2.13-.58-.5-2.23-2.15-4.96-4.98-2.73-2.85-4.57-4.61-5.53-5.28-.52-.36-1.31-1.21-2.36-2.55s-1.9-2.83-2.53-4.48c-.75-1.96-1.06-3.72-.94-5.28.12-1.58.38-2.9.78-3.96.4-1.03.9-1.95 1.5-2.77.59-.85.99-1.5 1.19-1.96.51-1.11 1.08-2.61 1.73-4.51.65-1.89 1.51-3.4 2.58-4.53 1.12-1.18 2.66-1.99 4.6-2.41 1.97-.43 3.48-.65 4.53-.68 1.04-.03 2.33.27 3.84.9 1.54.63 2.53 1.09 2.97 1.37.95.59 1.62.79 1.99.59.37-.22.54-.86.51-1.9s-.04-2.95-.03-5.71.15-4.64.42-5.64c.24-.94.32-2.25.22-3.91-.1-1.69.33-3.23 1.29-4.62.57-.85 1.36-1.82 2.38-2.92s1.77-1.97 2.26-2.63c.52-.68 1.24-1.18 2.17-1.5s1.64-.48 2.12-.5c.48-.01.83.34 1.03 1.06.23.69.14 1.67-.28 2.94-.25.78-.3 1.8-.16 3.06s.14 2.36.01 3.3c-.14.92-.02 3.81.35 8.68.37 4.82.52 7.63.4 8.41"/><path d="m355.13 94.58c.28-.68.45-1.25.52-1.72.1-.49-.31-.91-1.21-1.26-.71-.28-1.99-.11-3.84.51-1.82.59-3.17 1.07-4.05 1.44-1.31.57-2.12 1.61-2.43 3.1-.29 1.47-.42 2.64-.39 3.53.04 1.43.07 2.34.11 2.71.04.35.77.51 2.2.47 1.46-.04 3.2.09 5.24.39 2.06.3 3.34.05 3.83-.75.31-.49.26-1.74-.14-3.72-.37-2.01-.32-3.58.16-4.7m15.88-17.35c.13.89.16 2.17.1 3.85s-.09 2.88-.07 3.61-.05 2.07-.22 4.02c-.17 1.92-.55 3.31-1.15 4.16s-1.14 1.95-1.62 3.28c-.48 1.34-.87 2.8-1.18 4.41-.19.98-.44 2.67-.76 5.08-.32 2.39-.84 4.4-1.58 6.04-.31.68-1.79 1.22-4.45 1.62-2.64.39-5.51.63-8.61.71-1.21.03-3.16-.08-5.84-.33-2.68-.28-4.2-.6-4.56-.97-.33-.34-1.09-.85-2.27-1.52-1.18-.7-2.12-1.39-2.81-2.07s-1.51-1.88-2.44-3.58c-.91-1.7-1.38-3.27-1.42-4.7s.18-2.71.67-3.83c.48-1.12.93-2.18 1.33-3.2.46-1.17 1.27-2.41 2.46-3.71 1.18-1.33 2.4-2.25 3.65-2.77 1.87-.75 3.68-1.11 5.44-1.07 1.78.03 3.04.12 3.77.27.76.14 1.91.57 3.44 1.29 1.56.69 2.5 1.11 2.83 1.26.41.18.82-.05 1.24-.68s.94-1.54 1.59-2.72c.36-.66.51-1.51.46-2.56-.06-1.05-.09-1.77-.1-2.14-.03-1.27-.61-2.12-1.73-2.55-1.12-.46-2.29-.7-3.5-.72-.49-.01-1.25.06-2.3.22-1.05.14-2.1.3-3.15.49-.94.16-1.86.48-2.77.96-.88.48-1.65.87-2.32 1.15-.88.38-1.64.38-2.27.02-.63-.39-1.07-.77-1.33-1.14-.28-.4-.42-1.23-.43-2.5.02-1.3.36-2.28 1.02-2.94 1.13-1.14 2.34-2.24 3.64-3.3 1.32-1.06 2.17-1.73 2.54-2.01 1.3-.95 2.73-1.46 4.29-1.53 1.59-.07 3.16-.15 4.69-.24 1.56-.09 3.28.08 5.16.51 1.88.44 2.99.93 3.36 1.49.42.64 1.11 1.31 2.08 2.01.99.7 1.8 1.24 2.43 1.6s1.2 1.02 1.71 1.98c.52.94.84 1.87.98 2.75"/><path d="m418.84 64.95c.05.57-.15.82-.59.74-.43-.1-.91.02-1.44.34-.53.33-1.07.95-1.62 1.88-.53.9-.95 1.63-1.25 2.17-.3.55-.92 1.24-1.86 2.08-.92.84-1.48 1.68-1.66 2.52s-.52 1.9-1 3.2c-.49 1.29-.88 2.18-1.18 2.67-.32.53-1.15 1.58-2.47 3.15-1.31 1.57-2.41 3.15-3.3 4.73-.46.83-.88 2.02-1.27 3.56-.37 1.53-.89 2.65-1.55 3.35-.67.7-1.34 1.35-2.01 1.94-.65.59-1.09 1.11-1.32 1.56-.51 1-1.62 2.24-3.32 3.73s-3.17 2.96-4.39 4.4c-.47.55-1.1 1.3-1.89 2.25s-1.5 1.69-2.14 2.22c-.27.23-.7.18-1.28-.13-.58-.32-.91-.73-.98-1.23-.09-.72-.2-1.36-.33-1.91s-.3-1.12-.52-1.71c-.52-1.47-1.08-2.86-1.67-4.18-.59-1.34-.93-2.31-1.02-2.92s-.19-1.24-.3-1.88c-.11-.66-.2-2.27-.27-4.83-.01-.44.01-1.95.08-4.51.06-2.58.08-4.32.06-5.23s-.12-2.4-.28-4.47c-.17-2.09.03-3.5.58-4.24s1.27-2 2.15-3.78c.88-1.8 1.4-3.1 1.57-3.91.16-.8.17-1.46 0-1.97-.16-.53.06-.81.67-.82.87-.02 1.45.15 1.74.51.29.34.56 1.02.83 2.04.16.63.33 2.29.49 4.99s.25 4.32.27 4.86c.01.52-.18 1.89-.59 4.1-.39 2.22-.42 4.5-.1 6.84.09.68.22 1.63.38 2.83.18 1.18.29 1.98.34 2.38.1.91.29 1.36.59 1.37.31.01.63-.16.96-.5.96-1.01 1.64-1.77 2.05-2.28s.83-1.03 1.27-1.56c.45-.55 1.3-1.44 2.54-2.68 1.25-1.24 2.09-2.1 2.54-2.6 2.11-2.35 3.48-4.49 4.11-6.42.63-1.94 1.27-3.28 1.9-4.02.32-.38.88-1.1 1.67-2.16.79-1.08 1.42-1.89 1.91-2.44.47-.53 1.33-1.32 2.58-2.37 1.25-1.07 2.11-1.77 2.59-2.1.47-.33 1.04-.68 1.7-1.07.68-.39 1.76-.6 3.26-.64.93-.02 1.6.19 2.02.64.46.44.7.94.75 1.51"/><path d="m426.22 92.47c.2-.49.32-.9.37-1.23.07-.35-.22-.65-.86-.9-.51-.2-1.42-.08-2.74.36-1.3.42-2.27.77-2.9 1.03-.94.41-1.52 1.15-1.74 2.22-.2 1.05-.3 1.89-.28 2.53.03 1.02.05 1.67.08 1.94.03.25.55.36 1.57.34 1.04-.03 2.29.07 3.75.28 1.47.21 2.39.03 2.74-.54.22-.35.19-1.24-.1-2.66-.27-1.45-.24-2.57.11-3.37m11.35-12.41c.09.64.12 1.55.07 2.75s-.06 2.06-.05 2.58-.04 1.48-.16 2.87c-.12 1.38-.39 2.37-.82 2.98s-.81 1.39-1.16 2.35c-.34.96-.62 2.01-.84 3.15-.14.7-.32 1.91-.54 3.64-.23 1.71-.6 3.15-1.13 4.32-.22.49-1.28.87-3.19 1.16-1.89.28-3.94.45-6.16.51-.87.02-2.26-.06-4.18-.24-1.92-.2-3.01-.43-3.26-.7-.24-.24-.78-.61-1.62-1.09-.84-.5-1.51-.99-2.01-1.48s-1.08-1.34-1.75-2.56c-.65-1.22-.99-2.34-1.01-3.36-.03-1.02.13-1.93.48-2.74.35-.8.66-1.56.95-2.29.33-.84.91-1.72 1.76-2.65.84-.95 1.72-1.61 2.61-1.98 1.34-.54 2.63-.79 3.89-.77 1.28.02 2.18.09 2.7.19.54.1 1.36.41 2.46.92 1.11.49 1.79.79 2.02.9.29.13.59-.03.89-.49.3-.45.68-1.1 1.14-1.94.26-.47.37-1.08.33-1.83s-.06-1.26-.07-1.53c-.02-.91-.44-1.51-1.24-1.82-.8-.33-1.64-.5-2.51-.51-.35-.01-.9.04-1.65.16-.75.1-1.5.21-2.25.35-.67.11-1.33.34-1.98.69-.63.35-1.18.62-1.66.83-.63.27-1.17.27-1.62.01-.45-.28-.77-.55-.95-.82-.2-.28-.3-.88-.31-1.79.01-.93.26-1.63.73-2.1.81-.81 1.68-1.6 2.6-2.36.95-.76 1.55-1.24 1.82-1.44.93-.68 1.95-1.05 3.07-1.09 1.14-.05 2.26-.11 3.36-.18 1.12-.07 2.35.05 3.69.37 1.34.31 2.14.67 2.4 1.07.3.46.8.94 1.49 1.44.71.5 1.29.88 1.74 1.14s.86.73 1.23 1.42c.37.66.6 1.32.69 1.96"/><path d="m474.63 72.82c.02.67-.31 1.2-.99 1.6-.68.38-1.23.8-1.67 1.25-.42.44-.73 1.59-.94 3.45-.21 1.84-.38 3.05-.52 3.62-.16.61-.47 1.17-.93 1.7-.45.51-.94.89-1.46 1.15-.53.25-1.36.42-2.51.5s-2.01.31-2.58.69c-.62.41-.95.74-.98.98-.01.22.09.51.31.84.39.63.9 1.17 1.51 1.63.61.45 1.01.88 1.19 1.31s.44 1.2.78 2.32c.36 1.12.66 1.91.91 2.37.27.49.44.87.52 1.15.08.27.42.7 1.04 1.29.42.4.79.93 1.1 1.59.33.64.55 1.27.67 1.89.12.56.26 1.29.42 2.18.18.91.27 1.56.28 1.98.01.5-.22.82-.7.97s-1.1.22-1.87.2c-.77-.01-1.61-.16-2.51-.42-.9-.25-1.47-.51-1.72-.78-.27-.3-.47-.61-.62-.94-.15-.32-.46-.89-.95-1.7-1.9-3.13-3.09-5.35-3.55-6.66-.45-1.33-.88-2.99-1.29-4.99-.08-.36-.24-.77-.5-1.25-.24-.49-.6-.83-1.08-1.03-.68-.27-1.16-.5-1.46-.68-.28-.18-.54-.34-.78-.47-.57-.31-.96-.4-1.17-.28-.19.11-.27.44-.26.99.07 2.75.3 4.67.69 5.78.41 1.09.63 2.55.68 4.39.02.65-.15 1.48-.5 2.49-.33.99-.64 1.48-.91 1.49-.57.01-1.08-.1-1.53-.35-.44-.26-.83-.56-1.18-.9-.37-.35-.79-.88-1.25-1.59-.45-.71-.87-1.21-1.28-1.51-.39-.28-.77-.86-1.15-1.75-.37-.88-.56-1.64-.57-2.28-.05-1.85-.16-3.54-.34-5.07-.16-1.52-.24-2.71-.25-3.57 0-1.18-.06-2.38-.2-3.58-.12-1.22.15-2.72.81-4.5.21-.59.51-1.19.91-1.8.41-.61.75-1.29 1-2.04.14-.4.44-1.93.89-4.58.45-2.66.84-4.21 1.19-4.67.38-.49 1-1.2 1.85-2.14.85-.95 1.4-1.6 1.65-1.95s1.01-.72 2.29-1.12c1.28-.39 2.28-.6 3.02-.62s1.37.09 1.89.34c.52.23.81.59.85 1.08.05.48-.3.84-1.03 1.08-.73.22-1.31.64-1.72 1.26-.27.39-.62 2.03-1.08 4.95-.44 2.91-.7 4.59-.77 5.02-.08.41-.31 1.11-.72 2.08-.39.97-.75 1.79-1.1 2.45-.34.68-.69 1.32-1.03 1.93-.33.59-.48 1.19-.47 1.79.01.43.06.72.15.87s.38.22.88.21c1.27-.03 2.37-.23 3.31-.6.93-.39 1.65-.58 2.15-.6.46-.01 1.11-.53 1.94-1.54.85-1.02 1.66-1.9 2.43-2.64 1.01-.97 1.68-1.69 2.03-2.17.36-.49 1.08-1.03 2.15-1.63.54-.31 1.35-.58 2.42-.84 1.08-.25 1.96-.39 2.67-.4.63-.02 1.05.03 1.24.15.19.14.29.34.3.63"/><path d="m126.55 28.96c-.4-.27-.8-.55-1.2-.81-.59-.4-1.18-.78-1.75-1.1-1.29-.7-2.63-1.25-3.99-1.76-.03-.01-.07-.03-.1-.04l-.01-.01c-.19-.07-.36-.18-.55-.24 18.94 24.38 15.7 58.41-7.29 74.7-18.74 13.28-43.44 13.73-61.84-9.08-15.2-18.85-9.56-43.11 6.45-54.42 12.79-9.03 35.44-11.56 46.23 5.23 6.22 9.68 7.63 27.76-6.6 37.83-7.92 5.61-23.36 5.7-30.17-4.03-4.69-6.7-4.34-19.43 3.91-25.2 5.65-3.95 15.7-4.77 20.6 2.23 3.33 4.76 3.74 13.83-2.21 18-4.03 2.81-11 3.44-14.55-1.63-2.37-3.39-3.2-9.69 1.06-12.82 9.65-7.08 16.85 5.76 10.44 10.25-6.02 4.21-12.1-4.23-7.39-7.53 4.41-3.09 7.98 2.52 4.5 4.96l.28-1.06c.09-.91-.09-1.44-.66-2.25-1.53-2.18-5.21.79-2.88 4.12 2.56 3.65 9.56-1.12 5.89-6.36-3.99-5.7-15.29 1.13-9.74 9.06 2.81 4.01 8.38 3.78 11.95 1.28 4.9-3.43 4.6-10.2 1.58-14.52-4.16-5.95-12.36-5.58-17.56-1.93-7.19 5.04-6.73 14.93-2.36 21.18 6.08 8.68 17.98 8.1 25.48 2.85 10.44-7.31 9.73-21.6 3.45-30.58-8.77-12.53-25.91-11.67-36.64-4.15-15.01 10.51-13.97 31.01-4.99 43.84 12.57 17.95 37.08 16.7 52.38 5.98 21.45-15.02 19.94-44.28 7.16-62.53-17.92-25.6-52.83-23.78-74.58-8.54-30.54 21.38-28.36 62.99-10.22 88.89 9.28 13.26 21.14 21.1 33.79 24.63.52.14 1.02.32 1.54.44.83.21 1.67.32 2.51.49 1.71.33 3.42.66 5.15.85.04.01.08.01.12.01 4.68.5 9.4.49 14.09 0 .02 0 .04 0 .06-.01 2.14-.22 4.28-.57 6.4-.99.58-.12 1.15-.25 1.73-.39 1.47-.33 2.93-.71 4.38-1.13 1.18-.35 2.35-.72 3.51-1.13.8-.28 1.6-.57 2.39-.87 1.6-.62 3.2-1.29 4.76-2.02.37-.17.73-.35 1.09-.52 1.72-.84 3.41-1.74 5.08-2.71.38-.22.76-.45 1.14-.68 1.4-.84 2.76-1.74 4.11-2.67 1.2-.85 2.4-1.72 3.54-2.64.34-.26.67-.52 1.01-.79 1.09-.91 2.11-1.91 3.14-2.88 8.04-8.32 12.92-16.92 15.53-25.37 2.26-7.91 2.81-16.08 1.83-23.92-.08-.53-.1-1.08-.19-1.61-.06-.37-.16-.73-.22-1.1-3.1-15.68-12.3-28.59-20.57-34.8"/><path d="m493.11 76.06c-.06-.44-.22-.89-.47-1.36s-.53-.8-.84-.98-.71-.44-1.2-.79c-.48-.35-.82-.68-1.02-.99-.18-.27-.73-.52-1.66-.73-.92-.22-1.77-.3-2.54-.25-.76.05-1.53.09-2.31.12-.77.03-1.48.29-2.12.75-.18.14-.6.47-1.25.99-.64.52-1.24 1.06-1.79 1.62-.32.33-.49.81-.5 1.45 0 .63.07 1.04.21 1.23.12.18.34.37.65.56.31.18.68.18 1.12-.01.33-.14.71-.33 1.14-.57.45-.24.9-.4 1.37-.47.52-.09 1.03-.17 1.55-.24.52-.08.9-.12 1.14-.11.6.01 1.17.13 1.73.35.55.21.83.63.85 1.26 0 .19.02.54.05 1.06s-.05.94-.23 1.26c-.32.58-.58 1.03-.78 1.34s-.41.42-.61.34c-.16-.08-.63-.28-1.39-.62-.76-.35-1.32-.56-1.69-.63-.36-.07-.98-.11-1.86-.13-.87-.02-1.76.16-2.68.53-.62.26-1.22.71-1.8 1.36-.58.64-.98 1.25-1.21 1.83-.2.5-.42 1.02-.66 1.57s-.35 1.18-.33 1.89.25 1.48.7 2.32c.46.84.86 1.43 1.2 1.77s.8.68 1.38 1.02c.58.33.95.58 1.12.75.18.18.93.34 2.25.48 1.32.12 2.28.18 2.88.16 1.53-.04 2.94-.16 4.24-.35 1.31-.19 2.04-.46 2.2-.8.36-.81.62-1.8.78-2.97.15-1.19.28-2.02.37-2.51.15-.79.35-1.51.58-2.17.24-.66.5-1.2.8-1.62.29-.42.48-1.1.57-2.05.08-.96.12-1.62.11-1.98s0-.95.03-1.78c0-.83-.02-1.46-.08-1.9zm-7.57 7.7c-.03.23-.12.51-.26.84-.24.55-.26 1.32-.08 2.32.2.98.22 1.59.07 1.83-.24.39-.87.52-1.89.37-1-.15-1.86-.21-2.58-.19-.7.02-1.07-.06-1.08-.23-.02-.19-.04-.63-.06-1.34-.01-.44.05-1.02.19-1.74.15-.74.55-1.25 1.2-1.53.43-.18 1.1-.42 2-.71.91-.3 1.54-.39 1.89-.25.45.18.65.39.6.63z"/></svg>